<svg version="1.1" viewBox="0 0 32 32" xmlns="http://www.w3.org/2000/svg"><g fill="#444"><path d="m4.08 7.76c-0.459 0-0.9 0.39-0.9 0.9s0.39 0.9 0.9 0.9h0.988l-0.528 2.34h-1.15c-0.459 0-0.9 0.39-0.9 0.9 0 0.5 0.39 0.9 0.9 0.9h0.758l-0.942 4.25-0 0.207c0 0.459 0.368 0.827 0.781 0.873 0.413 0 0.735-0.23 0.85-0.666l1.03-4.66h2.46l-0.942 4.25-0 0.207c0 0.459 0.345 0.827 0.781 0.873 0.413 0 0.735-0.23 0.85-0.666l1.03-4.66h1.42c0.5 0 0.9-0.39 0.9-0.9 0-0.5-0.436-0.9-0.9-0.9h-1.03l0.528-2.34h1.19c0.5 0 0.9-0.39 0.9-0.9 0-0.5-0.436-0.9-0.9-0.9h-0.804l0.942-4.23c0-0.0689 0-0.138 0-0.184 0-0.436-0.322-0.804-0.758-0.85-0.413 0-0.735 0.23-0.85 0.643l-1.03 4.62h-2.46l0.942-4.23c0-0.0689 0-0.138 0-0.184 0-0.436-0.345-0.804-0.758-0.85-0.413 0-0.735 0.23-0.85 0.643l-1.03 4.62zm2.66 1.79h2.46l-0.528 2.34h-2.46z" stroke="#444"/><path d="m12.1 14.8c-0.459 0-0.9 0.39-0.9 0.9s0.39 0.9 0.9 0.9h0.988l-0.528 2.34h-1.15c-0.459 0-0.9 0.39-0.9 0.9 0 0.5 0.39 0.9 0.9 0.9h0.758l-0.942 4.25-0.0459 0.207c0 0.459 0.368 0.827 0.781 0.873 0.413 0 0.735-0.23 0.85-0.666l1.03-4.66h2.46l-0.942 4.25-0.0459 0.207c0 0.459 0.345 0.827 0.781 0.873 0.413 0 0.735-0.23 0.85-0.666l1.03-4.66h1.42c0.5 0 0.9-0.39 0.9-0.9 0-0.5-0.436-0.9-0.9-0.9h-1.03l0.528-2.34h1.19c0.5 0 0.9-0.39 0.9-0.9s-0.436-0.9-0.9-0.9h-0.804l0.942-4.23c0-0.0689 0-0.138 0-0.184 0-0.436-0.322-0.804-0.758-0.85-0.413 0-0.735 0.23-0.85 0.643l-1.03 4.62h-2.46l0.942-4.23c0-0.0689 0-0.138 0-0.184 0-0.436-0.345-0.804-0.758-0.85-0.413 0-0.735 0.23-0.85 0.643l-1.03 4.62zm2.66 1.79h2.46l-0.528 2.34h-2.46z" stroke="#444"/><path d="m10 10v20h20v-16.7l-3.33-3.33h-15zm1.67 1.67h3.33v6.67h10v-6.67h1.25l2.08 2.2v14.5h-1.67v-6.67h-13.3v6.67h-1.67zm5 0h3.33v5h-3.33zm-1.67 11.7h10v5h-10z" style="mix-blend-mode:multiply"/></g></svg>
