<svg width="32" height="32" version="1.1" viewBox="0 0 32 32" xmlns="http://www.w3.org/2000/svg"><rect x="1" y="16" width="30" height="15" fill="#bbb"/><rect x=".5" y=".5" width="31" height="31" fill="none" stroke="#000"/><g aria-label="iA"><path d="m8.11 6.31c0-1.02-0.9-1.89-2.02-1.89-1.15 0-2.02 0.83-2.02 1.89 0 1.02 0.86 1.89 2.02 1.89 1.12 0 1.98-0.83 2.02-1.89zm-0.29 19.6v-13.3c0-0.86-0.77-1.6-1.73-1.6-0.99 0-1.73 0.74-1.73 1.6v13.3c0 0.93 0.74 1.6 1.73 1.6 0.96 0 1.73-0.67 1.73-1.6z"/><path d="m15.7 22.5h7.46l1.02 3.1c0.42 1.15 0.8 1.95 1.95 1.95 1.02 0 1.82-0.64 1.82-1.63 0-0.16-0.03-0.48-0.1-0.6l-6.24-19c-0.38-1.12-0.9-1.92-2.14-1.92s-1.79 0.83-2.14 1.92l-6.24 19c-0.03 0.13-0.06 0.45-0.06 0.61 0 0.99 0.83 1.63 1.82 1.63 0.58 0 1.44-0.45 1.66-1.22zm3.78-12.8c0.67 3.33 1.76 6.5 2.75 9.73h-5.54c0.96-3.23 1.98-6.34 2.78-9.73z"/></g></svg>
