<svg version="1.1" viewBox="0 0 32 32" xmlns="http://www.w3.org/2000/svg"><g fill="#444" stroke="#bbb"><rect x="4.93" y="11.2" width="22.9" height="13.1" ry="2.8" /><rect x="7.11" y="13.4" width="24" height="13.1" ry="2.8"/></g><g stroke="#bbb"><path d="m5.56 23.3 2.7 2.62"/><path d="m26.3 11.5 3.82 2.57"/></g><g fill="#000" stroke="#bbb"><path d="m16.9 27c0-1.42 0.93-4.37 2.14-4.37s2.19 2.66 2.19 4.37"/><path d="m1.36 14.3c1.64-4.92 10.2-6.12 17.5-3.17h5.93c-2.62-2.57-6.17-5.3-14.9-5.3-6.56 0-8.96 4.26-8.74 7 0 3.28 2.62 6.7 5.9 6.7v-4.16c-1.09 0-5.57-0.219-5.46-4.96"/></g></svg>
