<svg width="32" height="32" version="1.1" viewBox="0 0 8 8" xmlns="http://www.w3.org/2000/svg"><g stroke="#bbb"><g fill="none"><path d="m1.25 6.75c3.5 0 2-5.5 5.5-5.5" stroke-width=".5"/><path d="m1.75 6.75h3" stroke-dasharray="0.25, 0.25" stroke-width=".25px"/><path d="m3.25 1.25h3" stroke-dasharray="0.25, 0.25" stroke-width=".25px"/></g><path d="m0.5 6.75a0.75 0.75 0 0 1 0.75-0.75 0.75 0.75 0 0 1 0.75 0.75 0.75 0.75 0 0 1-0.75 0.75 0.75 0.75 0 0 1-0.75-0.75" fill="#000" stroke-linejoin="bevel" stroke-width=".5" style="paint-order:markers fill stroke"/><path d="m6 1.25a0.75 0.75 0 0 1 0.75-0.75 0.75 0.75 0 0 1 0.75 0.75 0.75 0.75 0 0 1-0.75 0.75 0.75 0.75 0 0 1-0.75-0.75" fill="#000" stroke-linejoin="bevel" stroke-width=".5" style="paint-order:markers fill stroke"/></g></svg>
