<svg version="1.1" viewBox="0 0 32 32" xmlns="http://www.w3.org/2000/svg"><path d="m4 8a5 5 0 0 1 5-5 5 5 0 0 1 5 5 5 5 0 0 1-5 5 5 5 0 0 1-5-5" fill="#999"/><path d="m15 9a4 4 0 0 1 4-4 4 4 0 0 1 4 4 4 4 0 0 1-4 4 4 4 0 0 1-4-4" fill="#999"/><path d="m7 13h13v11h-13z" fill="none" stroke="#999" stroke-width="2"/><path d="m28 12-9 7 9 7z" fill="#999"/><path d="m13 19v2c4-0 7.6 2.34 9.2 6h-7.2v2h10v-10h-2v5.6c-2.17-3.44-5.93-5.55-10-5.6" fill="#bbb" stroke-width="4" style="mix-blend-mode:multiply"/></svg>
