<svg version="1.1" viewBox="0 0 32 32" xmlns="http://www.w3.org/2000/svg"><path d="m2 7a5 5 0 0 1 5-5 5 5 0 0 1 5 5 5 5 0 0 1-5 5 5 5 0 0 1-5-5" fill="#888"/><path d="m13 8a4 4 0 0 1 4-4 4 4 0 0 1 4 4 4 4 0 0 1-4 4 4 4 0 0 1-4-4" fill="#888"/><path d="m5 12h13v11h-13z" fill="none" stroke="#888" stroke-width="2"/><path d="m26 11-9 7 9 7z" fill="#888"/><path d="m6 6v24h24v-20l-4-4h-18zm2 2h4v8h12v-8h1.48l2.52 2.64v17.4h-2v-8h-16v8h-2zm6 0h4v6h-4zm-2 14h12v6h-12z" fill="#bbb" stroke-width="4" style="mix-blend-mode:multiply"/></svg>
