<svg width="32" height="32" version="1.1" viewBox="0 0 8.467 8.467" xmlns="http://www.w3.org/2000/svg"><g stroke="#4d4d4d" stroke-linecap="round" stroke-width=".3969"><path d="m0.7937 4.233c1.147-0.882 2.293-1.764 3.44-1.764 1.147 1.278e-4 2.293 0.8821 3.439 1.764" fill="none"/><path d="m7.673 4.233c-1.146 0.8827-2.292 1.765-3.439 1.766-1.147 5.714e-4 -2.294-0.8807-3.44-1.762" fill="none"/><path d="m3.175 4.235a1.058 1.058 0 0 1 1.057-1.06 1.058 1.058 0 0 1 1.06 1.057 1.058 1.058 0 0 1-1.057 1.06 1.058 1.058 0 0 1-1.06-1.057" fill="#191919" style="paint-order:markers fill stroke"/></g></svg>
