<svg version="1.1" viewBox="0 0 32 32" xmlns="http://www.w3.org/2000/svg"><path d="m4 16c-0-5 10-8 14-8s9 4 9 4 3-9 3-7v22c-0 2-3-7-3-7s-5 4-9 4-14-3-14-8z" fill="none" stroke="#444"/><path d="m9 13a2 2 0 0 1 2-2 2 2 0 0 1 2 2 2 2 0 0 1-2 2 2 2 0 0 1-2-2" fill="#444" style="paint-order:markers fill stroke"/><path d="m2 16a10 10 0 0 1 10-10 10 10 0 0 1 10 10 10 10 0 0 1-10 10 10 10 0 0 1-10-10" fill="none" stroke="#444" stroke-width="2" style="paint-order:markers fill stroke"/><path d="m19.5 23.5 7.5 7.5" fill="none" stroke="#444" stroke-linecap="round" stroke-width="2" style="mix-blend-mode:multiply"/></svg>
