<svg version="1.1" viewBox="0 0 32 32" xmlns="http://www.w3.org/2000/svg"><g fill="#444" aria-label="Iso"><path d="m2.9 24.7c0 0.55 0.47 1.04 1.04 1.04s1.04-0.49 1.04-1.04v-16.8c0-0.56-0.47-1.04-1.04-1.04s-1.04 0.49-1.04 1.04z"/><path d="m8.28 15.9c0 3.43 3.46 3.61 5.1 4.5 0.52 0.29 0.96 0.68 0.96 1.61 0 1.35-0.96 1.92-2.39 1.92-1.04 0-1.87-0.31-2.6-0.6-0.08-0.03-0.1-0.05-0.26-0.05-0.62 0-0.96 0.49-0.96 0.94 0 1.2 2.5 1.51 3.82 1.51 2.89 0 4.37-1.46 4.37-3.8 0-3.38-3.04-3.61-4.84-4.5-0.88-0.44-1.22-0.86-1.22-1.66 0-1.2 0.73-1.82 2.31-1.82 0.94 0 1.43 0.21 1.98 0.47 0.16 0.08 0.29 0.13 0.47 0.13 0.55 0 0.94-0.44 0.94-0.94 0-1.09-2.11-1.46-3.46-1.46-2.76 0-4.21 1.51-4.21 3.74z"/><path d="m23.5 25.7c3.17 0 4.86-2.03 4.86-4.63v-4.34c0-2.6-1.69-4.63-4.86-4.63s-4.86 2.03-4.86 4.63v4.34c0 2.6 1.69 4.63 4.86 4.63zm0-1.87c-1.87 0-2.83-1.04-2.83-2.76v-4.37c0-1.69 0.96-2.73 2.83-2.73s2.83 1.04 2.83 2.73v4.37c0 1.72-0.96 2.76-2.83 2.76z"/></g></svg>
