<svg version="1.1" viewBox="0 0 32 32" xmlns="http://www.w3.org/2000/svg"><g fill="#bbb" aria-label="-X"><path d="m13.6 17.8c0-0.6-0.48-1.11-1.08-1.11h-7.47c-0.63 0-1.11 0.51-1.11 1.11s0.48 1.08 1.11 1.08h7.47c0.6 0 1.08-0.48 1.08-1.08z"/><path d="m21 17.5 4.77 8.52c0.24 0.42 0.6 0.87 1.17 0.87s1.11-0.6 1.11-1.23c0-0.24-0.09-0.51-0.18-0.66l-5.46-9.42 5.01-8.61c0.09-0.18 0.15-0.42 0.15-0.63 0-0.66-0.51-1.2-1.08-1.2-0.6 0-1.05 0.6-1.32 1.05l-4.17 7.47-4.17-7.47c-0.3-0.54-0.75-1.05-1.29-1.05-0.6 0-1.11 0.57-1.11 1.17 0 0.21 0.06 0.48 0.15 0.66l5.01 8.61-5.46 9.42c-0.09 0.15-0.18 0.42-0.18 0.66 0 0.63 0.54 1.23 1.14 1.23 0.57 0 0.93-0.48 1.14-0.87z"/></g></svg>
