<svg version="1.1" viewBox="0 0 32 32" xmlns="http://www.w3.org/2000/svg"><g fill="#444" aria-label="-Y"><path d="m14.3 17.8c0-0.6-0.48-1.11-1.08-1.11h-7.47c-0.63 0-1.11 0.51-1.11 1.11s0.48 1.08 1.11 1.08h7.47c0.6 0 1.08-0.48 1.08-1.08z"/><path d="m20.7 26.9c0.69 0 1.23-0.6 1.23-1.26v-7.29l5.34-11.4c0.06-0.15 0.12-0.39 0.12-0.57 0-0.66-0.6-1.23-1.23-1.23-0.36 0-0.75 0.15-0.93 0.48l-4.53 9.87-4.53-9.87c-0.18-0.33-0.57-0.48-0.93-0.48-0.63 0-1.23 0.57-1.23 1.23 0 0.18 0.06 0.42 0.12 0.57l5.34 11.3v7.35c0 0.69 0.54 1.26 1.23 1.26z"/></g></svg>
