<svg version="1.1" viewBox="0 0 32 32" xmlns="http://www.w3.org/2000/svg"><g fill="#bbb" aria-label="+Y"><path d="m7.73 22.2c0 0.6 0.51 1.17 1.17 1.17s1.17-0.51 1.17-1.17v-5.1h4.8c0.66 0 1.17-0.51 1.17-1.17s-0.57-1.17-1.17-1.17h-4.8v-5.1c0-0.66-0.51-1.17-1.17-1.17s-1.17 0.57-1.17 1.17v5.1h-4.8c-0.6 0-1.17 0.51-1.17 1.17s0.51 1.17 1.17 1.17h4.8z"/><path d="m23.5 26.9c0.69 0 1.23-0.6 1.23-1.26v-7.29l5.34-11.4c0.06-0.15 0.12-0.39 0.12-0.57 0-0.66-0.6-1.23-1.23-1.23-0.36 0-0.75 0.15-0.93 0.48l-4.53 9.87-4.53-9.87c-0.18-0.33-0.57-0.48-0.93-0.48-0.63 0-1.23 0.57-1.23 1.23 0 0.18 0.06 0.42 0.12 0.57l5.34 11.3v7.35c0 0.69 0.54 1.26 1.23 1.26z"/></g></svg>
