<svg version="1.1" viewBox="0 0 32 32" xmlns="http://www.w3.org/2000/svg"><g fill="#444" aria-label="+Z"><path d="m9.73 22.2c0 0.6 0.51 1.17 1.17 1.17s1.17-0.51 1.17-1.17v-5.1h4.8c0.66 0 1.17-0.51 1.17-1.17s-0.57-1.17-1.17-1.17h-4.8v-5.1c0-0.66-0.51-1.17-1.17-1.17s-1.17 0.57-1.17 1.17v5.1h-4.8c-0.6 0-1.17 0.51-1.17 1.17s0.51 1.17 1.17 1.17h4.8z"/><path d="m32 25.4c0-0.66-0.57-1.17-1.2-1.17h-8.46l9.3-16.5c0.15-0.27 0.3-0.57 0.3-0.93 0-0.72-0.54-1.29-1.29-1.29h-10.2c-0.66 0-1.17 0.57-1.17 1.2 0 0.69 0.51 1.2 1.17 1.2h8.31l-9.24 16.5c-0.12 0.21-0.3 0.69-0.3 0.96 0 0.72 0.54 1.32 1.26 1.32h10.3c0.66 0 1.2-0.54 1.2-1.23z"/></g></svg>
