<svg width="32" height="32" version="1.1" viewBox="0 0 8 8" xmlns="http://www.w3.org/2000/svg"><path d="m0.25 2.25h7.5" fill="none" stroke="#bbb" stroke-width=".5"/><path d="m0.25 5.75h7.5" fill="none" stroke="#bbb" stroke-width=".5"/><path d="m5 2.25a1 1 0 0 1 1-1 1 1 0 0 1 1 1 1 1 0 0 1-1 1 1 1 0 0 1-1-1" fill="#bbb" style="paint-order:markers fill stroke"/><path d="m1 5.75a1 1 0 0 1 1-1 1 1 0 0 1 1 1 1 1 0 0 1-1 1 1 1 0 0 1-1-1" fill="#bbb" style="paint-order:markers fill stroke"/><text x="1.702" y="7.6960001" fill="#fff" font-family="'Blogger Sans'" font-size="6px" letter-spacing="0px" stroke-width=".25" word-spacing="0px" style="line-height:1.1" xml:space="preserve">3D</text></svg>
