<svg version="1.1" viewBox="0 0 32 32" xmlns="http://www.w3.org/2000/svg"><g fill="#999" aria-label="3D"><path d="m10.7 3.73c0.168-0.216 0.24-0.432 0.24-0.696 0-0.648-0.432-1.08-1.03-1.08h-6.7c-0.528 0-0.936 0.456-0.936 0.984s0.408 0.936 0.936 0.936h5.33l-4.3 5.59c-0.456 0.624 0 1.46 0.624 1.46 0.216 0 0.264-0.096 0.408-0.144 0.264-0.096 0.6-0.144 1.03-0.144 1.87 0 3.26 0.888 3.26 3.1 0 1.7-0.816 3.65-3.5 3.65-1.25 0-2.02-0.408-2.71-0.816-0.168-0.096-0.336-0.144-0.504-0.144-0.504 0-0.888 0.432-0.888 0.912 0 1.54 3.65 1.78 4.63 1.78 3.46 0 4.87-3 4.87-5.47 0-2.98-2.04-4.63-4.8-4.7z"/><path d="m24.9 12.6v-4.49c0-3.22-1.68-6.12-6.58-6.12h-2.71c-0.624 0-1.15 0.528-1.15 1.15v14.6c0 0.624 0.528 1.15 1.15 1.15h2.71c4.92 0 6.58-3.05 6.58-6.34zm-1.92 0c0 2.47-1.08 4.46-4.25 4.46h-2.35v-13.2h2.35c3.12 0 4.25 1.87 4.25 4.25z"/></g><path d="m22 8c-2 0-4 1.6-4 3h-12v2h12c0 1.6 2 3 4 3s4-1.6 4-3h4v-2h-4c0-1.6-2-3-4-3zm-10 14c-2 0-4 1.6-4 3h-2v2h2c0 1.6 2 3 4 3s4-1.6 4-3h14v-2h-14c0-1.6-2-3-4-3zm0 2c1 0 2 1 2 2s-1 2-2 2-2-1-2-2 1-2 2-2z" fill="#bbb" style="mix-blend-mode:multiply"/></svg>
