<svg version="1.1" viewBox="0 0 32 32" xmlns="http://www.w3.org/2000/svg"><g fill="#999" aria-label="2D"><path d="m11.6 18c0-0.504-0.408-0.912-0.936-0.912h-6.6c1.2-2.54 3.74-4.34 5.71-6.55 1.01-1.13 1.73-2.45 1.73-4.44 0-2.54-1.78-4.58-4.82-4.58-1.51 0-2.78 0.288-4.03 1.08-0.408 0.264-0.624 0.528-0.624 0.912 0 0.528 0.456 0.888 0.912 0.888 0.432 0 0.84-0.408 1.44-0.672 0.648-0.288 1.37-0.456 2.28-0.456 1.97 0 2.98 1.34 2.98 3.1 0 1.25-0.624 2.26-1.32 3.05-2.06 2.38-5.09 4.46-6.38 7.56-0.12 0.264-0.144 0.624-0.144 0.936 0 0.576 0.408 1.01 0.984 1.01h7.9c0.528 0 0.936-0.408 0.936-0.912z"/><path d="m24.9 12.6v-4.49c0-3.22-1.68-6.12-6.58-6.12h-2.71c-0.624 0-1.15 0.528-1.15 1.15v14.6c0 0.624 0.528 1.15 1.15 1.15h2.71c4.92 0 6.58-3.05 6.58-6.34zm-1.92 0c0 2.47-1.08 4.46-4.25 4.46h-2.35v-13.2h2.35c3.12 0 4.25 1.87 4.25 4.25z"/></g><path d="m22 8c-2 0-4 1.6-4 3h-12v2h12c0 1.6 2 3 4 3s4-1.6 4-3h4v-2h-4c0-1.6-2-3-4-3zm-10 14c-2 0-4 1.6-4 3h-2v2h2c0 1.6 2 3 4 3s4-1.6 4-3h14v-2h-14c0-1.6-2-3-4-3zm0 2c1 0 2 1 2 2s-1 2-2 2-2-1-2-2 1-2 2-2z" fill="#bbb" style="mix-blend-mode:multiply"/></svg>
