<svg version="1.1" viewBox="0 0 32 32" xmlns="http://www.w3.org/2000/svg"><g fill="#bbb" aria-label="2D"><path d="m14 25.1c0-0.59-0.48-1.06-1.09-1.06h-7.7c1.4-2.97 4.37-5.07 6.66-7.64 1.18-1.32 2.02-2.86 2.02-5.18 0-2.97-2.07-5.35-5.63-5.35-1.76 0-3.25 0.34-4.7 1.26-0.48 0.31-0.73 0.62-0.73 1.06 0 0.62 0.53 1.04 1.06 1.04 0.5 0 0.98-0.48 1.68-0.78 0.76-0.34 1.6-0.53 2.66-0.53 2.3 0 3.47 1.57 3.47 3.61 0 1.46-0.73 2.63-1.54 3.56-2.41 2.77-5.94 5.21-7.45 8.82-0.14 0.31-0.17 0.73-0.17 1.09 0 0.67 0.48 1.18 1.15 1.18h9.21c0.62 0 1.09-0.48 1.09-1.06z"/><path d="m29.5 18.8v-5.24c0-3.75-1.96-7.14-7.67-7.14h-3.16c-0.73 0-1.34 0.62-1.34 1.34v17.1c0 0.73 0.62 1.34 1.34 1.34h3.16c5.74 0 7.67-3.56 7.67-7.39zm-2.24 0c0 2.88-1.26 5.21-4.96 5.21h-2.74v-15.4h2.74c3.64 0 4.96 2.18 4.96 4.96z"/></g></svg>
