<svg version="1.1" viewBox="0 0 32 32" xmlns="http://www.w3.org/2000/svg"><g fill="#bbb" aria-label="3D"><path d="m12.8 8.06c0.2-0.25 0.28-0.5 0.28-0.81 0-0.76-0.5-1.26-1.2-1.26h-7.81c-0.61 0-1.09 0.53-1.09 1.15s0.48 1.09 1.09 1.09h6.22l-5.01 6.52c-0.53 0.73 0 1.71 0.73 1.71 0.25 0 0.3-0.11 0.48-0.17 0.3-0.11 0.7-0.17 1.2-0.17 2.18 0 3.81 1.04 3.81 3.61 0 1.99-0.95 4.26-4.09 4.26-1.46 0-2.35-0.48-3.16-0.95-0.2-0.11-0.39-0.17-0.59-0.17-0.59 0-1.04 0.5-1.04 1.06 0 1.79 4.26 2.07 5.4 2.07 4.03 0 5.68-3.5 5.68-6.38 0-3.47-2.38-5.4-5.6-5.49z"/><path d="m29.4 18.4v-5.24c0-3.75-1.96-7.14-7.67-7.14h-3.16c-0.73 0-1.34 0.62-1.34 1.34v17.1c0 0.73 0.62 1.34 1.34 1.34h3.16c5.74 0 7.67-3.56 7.67-7.39zm-2.24 0c0 2.88-1.26 5.21-4.96 5.21h-2.74v-15.4h2.74c3.64 0 4.96 2.18 4.96 4.96z"/></g></svg>
