<svg version="1.1" viewBox="0 0 32 32" xmlns="http://www.w3.org/2000/svg"><g fill="none" stroke="#444"><g stroke-linejoin="round"><path d="m22 5.6-8 4.7 8 4.7 8-4.7z"/><path d="m14 10.3v10.7l8 4.68v-11z"/><path d="m22 15 0 10.7 8-4.4v-11z"/></g><g stroke-linecap="round" stroke-width="2"><path d="m12 16 12 5"/><path d="m12 16 12-5"/></g><g stroke-linecap="round"><path d="m2.5 19a2.5 2.5 0 0 1 2.5-2.5 2.5 2.5 0 0 1 2.5 2.5 2.5 2.5 0 0 1-2.5 2.5 2.5 2.5 0 0 1-2.5-2.5"/><path d="m2.5 13a2.5 2.5 0 0 1 2.5-2.5 2.5 2.5 0 0 1 2.5 2.5 2.5 2.5 0 0 1-2.5 2.5 2.5 2.5 0 0 1-2.5-2.5"/></g><g stroke-width="2"><path d="m12 16-5-2"/><path d="m12 16-5 2"/></g></g></svg>
