<svg width="32" height="32" version="1.1" viewBox="0 0 32 32" xmlns="http://www.w3.org/2000/svg"><g fill="none"><path d="m1 28 28-1e-6" stroke="#444" stroke-width="2"/><path d="m4 31 1.5e-6 -29" stroke="#444" stroke-width="2"/><g stroke="#777"><g stroke-width="3"><path d="m6.5 27 1.673e-4 -0.9995"/><path d="m9.5 27 1.67e-4 -19"/><path d="m12.5 27 1.67e-4 -16"/><path d="m15.5 27 1.67e-4 -2"/></g><path d="m18.5 27 1.67e-4 -3" stroke-width="3"/><path d="m21.5 27-1e-5 -6" stroke-width="3"/><path d="m24.5 27-1e-5 -2" stroke-width="3"/></g><path d="m4.354 27.65 23.29-23.3" stroke="#444" stroke-width="1px"/></g><path d="m25.5 4.503a2 2 0 0 1 1.997-2.003 2 2 0 0 1 2.003 1.997 2 2 0 0 1-1.997 2.003 2 2 0 0 1-2.003-1.997" fill="#777" stroke="#444" stroke-linecap="round" style="paint-order:markers fill stroke"/><path d="m2 28a2 2 0 0 1 1.997-2.003 2 2 0 0 1 2.003 1.997 2 2 0 0 1-1.997 2.003 2 2 0 0 1-2.003-1.997" fill="#777" stroke="#444" stroke-linecap="round" style="paint-order:markers fill stroke"/></svg>
