<svg version="1.1" viewBox="0 0 32 32" xmlns="http://www.w3.org/2000/svg"><defs><linearGradient id="a" x1="11" x2="23" y1="21" y2="9" gradientUnits="userSpaceOnUse"><stop stop-color="#444" offset="0"/><stop stop-color="#bbb" offset="1"/></linearGradient></defs><g fill="none" stroke-width="2"><g stroke="#bbb"><path d="m4 25 24-1e-6"/><path d="m7 28 1e-6 -24"/></g><g stroke="#999"><path d="m11 24 1e-4 -19"/><path d="m13 24 1e-4 -14"/><path d="m15 24 1e-4 -2"/><path d="m17 24 1e-4 -3"/><path d="m19 24-8e-6 -5"/><path d="m21 24-8e-6 -6"/><path d="m23 24-8e-6 -4"/><path d="m25 24-8e-6 -2"/><path d="m27 24-8e-6 -1"/></g></g><path d="m22.5 7a2.5 2.5 0 0 1 2.5-2.5 2.5 2.5 0 0 1 2.5 2.5 2.5 2.5 0 0 1-2.5 2.5 2.5 2.5 0 0 1-2.5-2.5" fill="#fff" stroke="#bbb"/><path d="m6.5 23a2.5 2.5 0 0 1 2.5-2.5 2.5 2.5 0 0 1 2.5 2.5 2.5 2.5 0 0 1-2.5 2.5 2.5 2.5 0 0 1-2.5-2.5" fill="#fff" stroke="#444"/><path d="m11 21 12-12" stroke="url(#a)" stroke-width="2"/></svg>
