<svg width="32" height="32" version="1.1" viewBox="0 0 8 8" xmlns="http://www.w3.org/2000/svg"><g fill="none"><path d="m0 7.25 8-3e-7" stroke="#444" stroke-width=".5"/><path d="m0.75 8 4.1e-7 -8" stroke="#444" stroke-width=".5"/><g stroke="#777"><g stroke-width=".75"><path d="m1.375 7 4.61e-5 -0.5051"/><path d="m2.125 7 4.61e-5 -5.25"/><path d="m2.875 7 4.6e-5 -4.5"/><path d="m3.625 7.001 4.61e-5 -0.7524"/><path d="m4.375 7.001 4.6e-5 -1.001"/><path d="m5.125 7-2.7e-6 -1.75"/><path d="m5.875 7-2.8e-6 -1.251"/><path d="m6.625 7-2.8e-6 -0.9998"/></g><path d="m7.375 7-2.8e-6 -0.4994" stroke-width=".75"/></g><path d="m0.9252 7.076 6.425-6.428" stroke="#444" stroke-width=".5"/></g><path d="m6.759 0.6905a0.5517 0.5517 0 0 1 0.5509-0.5526 0.5517 0.5517 0 0 1 0.5526 0.5509 0.5517 0.5517 0 0 1-0.5509 0.5526 0.5517 0.5517 0 0 1-0.5526-0.5509" fill="#777" stroke="#444" stroke-linecap="round" stroke-width=".25" style="paint-order:markers fill stroke"/><path d="m0.2759 7.172a0.5517 0.5517 0 0 1 0.5509-0.5526 0.5517 0.5517 0 0 1 0.5526 0.5509 0.5517 0.5517 0 0 1-0.5509 0.5526 0.5517 0.5517 0 0 1-0.5526-0.5509" fill="#777" stroke="#444" stroke-linecap="round" stroke-width=".25" style="paint-order:markers fill stroke"/></svg>
