<svg version="1.1" viewBox="0 0 32 32" xmlns="http://www.w3.org/2000/svg"><defs><linearGradient id="a" x1="9" x2="21" y1="23" y2="11" gradientTransform="translate(1 -1)" gradientUnits="userSpaceOnUse"><stop stop-color="#444" offset="0"/><stop stop-color="#bbb" offset="1"/></linearGradient></defs><g fill="none"><path d="m4 25.5 24-1e-6" stroke="#bbb"/><path d="m6.5 28 1e-6 -24" stroke="#bbb"/><g stroke="#999" stroke-width="2"><path d="m10 25 1e-4 -19"/><path d="m12 25 1e-4 -14"/><path d="m14 25 1e-4 -2"/><path d="m16 25 1e-4 -3"/><path d="m18 25-8e-6 -5"/><path d="m20 25-8e-6 -6"/><path d="m22 25-8e-6 -4"/><path d="m24 25-8e-6 -2"/><path d="m26 25-8e-6 -1"/></g><path d="m10 22 12-12" stroke="url(#a)" stroke-width="2px"/></g><path d="m21.5 8a2.5 2.5 0 0 1 2.5-2.5 2.5 2.5 0 0 1 2.5 2.5 2.5 2.5 0 0 1-2.5 2.5 2.5 2.5 0 0 1-2.5-2.5" fill="#fff" stroke="#bbb"/><path d="m5.5 24a2.5 2.5 0 0 1 2.5-2.5 2.5 2.5 0 0 1 2.5 2.5 2.5 2.5 0 0 1-2.5 2.5 2.5 2.5 0 0 1-2.5-2.5" fill="#fff" stroke="#444"/></svg>
