<svg version="1.1" viewBox="0 0 32 32" xmlns="http://www.w3.org/2000/svg"><g fill="#bbb"><text x="12.561703" y="20.943316" font-family="'Blogger Sans'" font-size="17px" font-weight="bold" letter-spacing="0px">i</text><path d="m18 18 10 4-5 1-1 5z"/><path d="m14.9 3.87c-6.1 0-11.1 5-11 11.1 0 6.1 5 11.1 11.1 11 1.5-0 2.93-0.3 4.24-0.852l-0.559-1.47c-1.13 0.478-2.37 0.742-3.68 0.744-5.25 0-9.5-4.22-9.51-9.47v-6e-3c-0-5.25 4.22-9.5 9.5-9.5 5.25-0 9.5 4.22 9.5 9.5 0 1.18-0.211 2.31-0.6 3.36l1.47 0.574c0.464-1.22 0.719-2.55 0.717-3.93-0-6.1-5-11.1-11.1-11z" stroke-width="2"/></g></svg>