<svg width="32" height="32" version="1.1" viewBox="0 0 8 8" xmlns="http://www.w3.org/2000/svg"><text x="2.9926672" y="5.6353326" fill="#bbb" font-family="'Blogger Sans'" font-size="5.333px" font-weight="bold" letter-spacing="0px" stroke-width=".25" word-spacing="0px" style="line-height:1.1" xml:space="preserve">i</text><path d="m4.73 4.557 2.971 1.231-1.557 0.1899-0.1899 1.801z" fill="#bbb" stroke="#bbb" stroke-linecap="round" stroke-linejoin="round" stroke-width=".25px"/><path d="m3.744 0.25c-1.93 0.003099-3.497 1.576-3.494 3.506 0.003301 1.93 1.576 3.497 3.506 3.494 0.4749-7.956e-4 0.9279-0.09677 1.341-0.2695l-0.1768-0.4658c-0.3575 0.1511-0.7508 0.2347-1.164 0.2354-1.66 0.002781-3.003-1.334-3.006-2.994a0.25 0.25 0 0 0 0-4.883e-4 0.25 0.25 0 0 0 0-4.883e-4 0.25 0.25 0 0 0 0-4.883e-4 0.25 0.25 0 0 0 0-4.883e-4c-0.002607-1.66 1.336-3.001 2.996-3.004 1.66-0.002665 3.001 1.334 3.004 2.994 6.136e-4 0.374-0.06663 0.7319-0.1904 1.062l0.4014 0.1665c0.02125 0.004783 0.04179 0.01005 0.0625 0.01514 0.1467-0.3868 0.2273-0.806 0.2266-1.244-0.003166-1.93-1.576-3.497-3.506-3.494z" color="#000" fill="#bbb" stroke-linecap="round" stroke-linejoin="round" style="-inkscape-stroke:none;paint-order:markers fill stroke"/></svg>
