<svg version="1.1" viewBox="0 0 32 32" xmlns="http://www.w3.org/2000/svg"><g fill="#444"><path d="m18 8.57c0-0.971-0.869-1.79-2-1.79s-2 0.792-2 1.79c0 0.971 0.869 1.79 2 1.79s2-0.792 2-1.79zm-0.226 4.99c0-0.842-0.767-1.56-1.76-1.56-0.992 0-1.76 0.722-1.76 1.56v10.1c0 0.902 0.767 1.58 1.76 1.58 0.992 0 1.76-0.692 1.76-1.58z"/><path d="m19 19 12 5-6 1-1 6z"/><path d="m16 4c7 0 12 4.95 12 12 0 1.49-0.24 2.88-0.733 4.21l1.86 0.72c0.581-1.54 0.875-3.18 0.875-4.93 0-8-6-14-14-14s-14 6-14 14 6 14 14 14c1.9 0 3.73-0.447 5.39-1.14l-0.708-1.86c-1.43 0.607-3.03 1-4.68 1-7 0-12-5-12-12s5-12 12-12z" stroke-width="2"/></g></svg>
