<svg version="1.1" viewBox="0 0 32 32" xmlns="http://www.w3.org/2000/svg"><g fill="#444"><path d="m16.4 9.12c0-0.75-0.671-1.38-1.55-1.38-0.874 0-1.55 0.612-1.55 1.38 0 0.75 0.671 1.38 1.55 1.38 0.874 0 1.55-0.612 1.55-1.38zm-0.174 3.86c0-0.651-0.592-1.21-1.36-1.21s-1.36 0.558-1.36 1.21v7.78c0 0.697 0.592 1.22 1.36 1.22s1.36-0.534 1.36-1.22z"/><path d="m18.4 18.4 11.6 4.65-5.81 1.16-1.16 5.81z"/><path d="m15 2c-8 0-13 5-13 13 0.0467 7.97 5 13 13 13 2-3e-6 3.3-0.674 4.82-1.31l-0.651-1.71c-1.31 0.558-2.26 0.958-4.17 1.02-7 0.228-11-4-11-11 0-7 4-11 11-11 7 0 11 4 11 11 0 1-0.322 2.51-0.775 3.73l1.71 0.662c0.534-1.42 1.07-2.79 1.07-4.4 0-8-5-13-13-13z" stroke-width="2"/></g></svg>
