<svg version="1.1" viewBox="0 0 32 32" xmlns="http://www.w3.org/2000/svg"><g fill="#444"><g aria-label="i"><path d="m16.3 10c0-0.646-0.578-1.19-1.33-1.19s-1.33 0.527-1.33 1.19c0 0.646 0.578 1.19 1.33 1.19s1.33-0.527 1.33-1.19zm-0.15 3.32c0-0.56-0.51-1.04-1.17-1.04s-1.17 0.48-1.17 1.04v6.7c0 0.6 0.51 1.05 1.17 1.05s1.17-0.46 1.17-1.05z"/></g><path d="m18 18 10 4-5 1-1 5z"/><path d="m14.9 3.87c-6.1 0-11.1 5-11 11.1 0 6.1 5 11.1 11.1 11 1.5-0 2.93-0.3 4.24-0.85l-0.56-1.47c-1.13 0.48-2.37 0.74-3.68 0.74-5.25 0-9.5-4.22-9.51-9.47v-6e-3c-0-5.25 4.22-9.5 9.5-9.5 5.25-0 9.5 4.22 9.5 9.5 0 1.18-0.21 2.31-0.6 3.36l1.47 0.57c0.46-1.22 0.72-2.55 0.72-3.93-0-6.1-5-11.1-11.1-11z" stroke-width="2"/></g></svg>
