<svg version="1.1" viewBox="0 0 32 32" xmlns="http://www.w3.org/2000/svg"><g fill="#999" aria-label="3D"><path d="m12.7 9.14c0.11-0.14 0.16-0.29 0.16-0.46 0-0.43-0.29-0.72-0.69-0.72h-4.46c-0.35 0-0.62 0.3-0.62 0.66s0.27 0.62 0.62 0.62h3.55l-2.86 3.73c-0.3 0.42 0 0.98 0.42 0.98 0.14 0 0.18-0.06 0.27-0.1 0.18-0.06 0.4-0.1 0.69-0.1 1.25 0 2.18 0.59 2.18 2.06 0 1.14-0.54 2.43-2.34 2.43-0.83 0-1.34-0.27-1.81-0.54-0.11-0.06-0.22-0.1-0.34-0.1-0.34 0-0.59 0.29-0.59 0.61 0 1.02 2.43 1.18 3.09 1.18 2.3 0 3.25-2 3.25-3.65 0-1.98-1.36-3.09-3.2-3.14z"/><path d="m21.1 15v-2.99c0-2.14-1.12-4.08-4.38-4.08h-1.81c-0.42 0-0.77 0.35-0.77 0.77v9.76c0 0.42 0.35 0.77 0.77 0.77h1.81c3.28 0 4.38-2.03 4.38-4.22zm-1.28 0c0 1.65-0.72 2.98-2.83 2.98h-1.57v-8.8h1.57c2.08 0 2.83 1.25 2.83 2.83z"/></g><path d="m4 13.5a9.5 9.5 0 0 1 9.5-9.5 9.5 9.5 0 0 1 9.5 9.5 9.5 9.5 0 0 1-9.5 9.5 9.5 9.5 0 0 1-9.5-9.5" fill="none" stroke="#bbb" stroke-width="2" style="mix-blend-mode:multiply"/><path d="m21 21 7 7" fill="none" stroke="#bbb" stroke-linecap="round" stroke-width="2"/></svg>
