<svg version="1.1" viewBox="0 0 32 32" xmlns="http://www.w3.org/2000/svg"><g fill="#777" aria-label="2D"><path d="m13.3 18.6c0-0.34-0.27-0.61-0.62-0.61h-4.4c0.8-1.7 2.5-2.9 3.81-4.37 0.67-0.75 1.15-1.63 1.15-2.96 0-1.7-1.18-3.06-3.22-3.06-1.01 0-1.86 0.19-2.69 0.72-0.27 0.18-0.42 0.35-0.42 0.61 0 0.35 0.3 0.59 0.61 0.59 0.29 0 0.56-0.27 0.96-0.45 0.43-0.19 0.91-0.3 1.52-0.3 1.31 0 1.98 0.9 1.98 2.06 0 0.83-0.42 1.5-0.88 2.03-1.38 1.58-3.39 2.98-4.26 5.04-0.08 0.18-0.1 0.42-0.1 0.62 0 0.38 0.27 0.67 0.66 0.67h5.26c0.35 0 0.62-0.27 0.62-0.61z"/><path d="m21.1 15v-2.99c0-2.14-1.12-4.08-4.38-4.08h-1.81c-0.42 0-0.77 0.35-0.77 0.77v9.76c0 0.42 0.35 0.77 0.77 0.77h1.81c3.28 0 4.38-2.03 4.38-4.22zm-1.28 0c0 1.65-0.72 2.98-2.83 2.98h-1.57v-8.8h1.57c2.08 0 2.83 1.25 2.83 2.83z"/></g><path d="m4 13.5a9.5 9.5 0 0 1 9.5-9.5 9.5 9.5 0 0 1 9.5 9.5 9.5 9.5 0 0 1-9.5 9.5 9.5 9.5 0 0 1-9.5-9.5" fill="none" stroke="#444" stroke-width="2" style="mix-blend-mode:multiply"/><path d="m21 21 7 7" fill="none" stroke="#444" stroke-linecap="round" stroke-width="2"/></svg>
