<svg width="32" height="32" version="1.1" viewBox="0 0 8 8" xmlns="http://www.w3.org/2000/svg"><path class="ColorScheme-Text" d="m0.5 0.25v7.5l7-9.75e-4v-7.5l-7 9.75e-4m0.5 0.5h0.5v0.5h-0.5v-0.5m1 0 4-9.75e-4v2.75l-4 9.75e-4v-2.75m4.5-9.75e-4h0.5v0.5h-0.5v-0.5m-5.5 1.5h0.5v0.5h-0.5v-0.5m5.5-9.75e-4h0.5v0.5h-0.5v-0.5m-5.5 1.5h0.5v0.5h-0.5v-0.5m5.5-9.75e-4h0.5v0.5h-0.5v-0.5m-4.5 0.75 4-9.75e-4v2.75l-4 9.75e-4v-2.75m-1 0.75h0.5v0.5h-0.5v-0.5m5.5-9.75e-4h0.5v0.5h-0.5v-0.5m-5.5 1.5h0.5v0.5h-0.5v-0.5m5.5-9.75e-4h0.5v0.5h-0.5v-0.5" fill="#444"/></svg>
