<svg version="1.1" viewBox="0 0 32 32" xmlns="http://www.w3.org/2000/svg"><g fill="none" stroke="#1d99f3"><path d="m7 25c13 0 5-18 18-18" stroke-width="2"/><path d="m9 25h11" stroke-dasharray="1, 1"/><path d="m12 7h11" stroke-dasharray="1, 1"/></g><path d="m4.5 25a2.5 2.5 0 0 1 2.5-2.5 2.5 2.5 0 0 1 2.5 2.5 2.5 2.5 0 0 1-2.5 2.5 2.5 2.5 0 0 1-2.5-2.5" fill="#fff" stroke="#1d99f3" /><path d="m22.5 7a2.5 2.5 0 0 1 2.5-2.5 2.5 2.5 0 0 1 2.5 2.5 2.5 2.5 0 0 1-2.5 2.5 2.5 2.5 0 0 1-2.5-2.5" fill="#fff" stroke="#1d99f3" /></svg>
