<svg version="1.1" viewBox="0 0 32 32" xmlns="http://www.w3.org/2000/svg" xmlns:xlink="http://www.w3.org/1999/xlink"><defs><linearGradient id="a" x1="8" x2="24" y1="24" y2="8" gradientUnits="userSpaceOnUse"><stop stop-color="#e81877" offset="0"/><stop stop-color="#dd1d8c" offset=".312"/><stop stop-color="#6d57b1" offset=".562"/><stop stop-color="#2a78c1" offset=".75"/><stop stop-color="#018dcb" offset="1"/></linearGradient><linearGradient id="b" x1="8" x2="24" y1="24" y2="8" gradientTransform="matrix(1,0,0,-1,384.6,547.8)" gradientUnits="userSpaceOnUse"><stop stop-color="#e51561" offset="0"/><stop stop-color="#e4156c" offset=".312"/><stop stop-color="#e71e2c" offset=".562"/><stop stop-color="#e8301e" offset=".75"/><stop stop-color="#e6320e" offset="1"/></linearGradient><linearGradient id="c" x1="8" x2="24" y1="24" y2="8" gradientTransform="matrix(-1,0,0,1,432.6,499.8)" gradientUnits="userSpaceOnUse"><stop stop-color="#bec900" offset="0"/><stop stop-color="#9ec80a" offset=".312"/><stop stop-color="#71b93d" offset=".562"/><stop stop-color="#35a48f" offset=".75"/><stop stop-color="#018fca" offset="1"/></linearGradient><linearGradient id="d" x1="8" x2="24" y1="24" y2="8" gradientTransform="rotate(180,216.3,273.9)" gradientUnits="userSpaceOnUse"><stop stop-color="#c1cc00" offset="0"/><stop stop-color="#dfcd00" offset=".312"/><stop stop-color="#f0cc00" offset=".562"/><stop stop-color="#fd8c08" offset=".75"/><stop stop-color="#f25c13" offset="1"/></linearGradient><rect id="r" x="8" y="8" width="32" height="32" rx="16"/><rect id="s" x="392.6" y="507.8" width="32" height="32" rx="16"/><path id="t" d="m24 8c-8.864 0-16 7.136-16 16h16z" fill="url(#a)"/><path id="u" d="m408.6 539.8c-8.864 0-16-7.136-16-16h16z" fill="url(#b)"/><path id="v" d="m408.6 507.8c8.864 0 16 7.136 16 16h-16z" fill="url(#c)"/><path id="w" d="m408.6 539.8c8.864 0 16-7.136 16-16h-16z" fill="url(#d)"/><clipPath id="q"><use xlink:href="#r"/></clipPath><clipPath id="p"><use xlink:href="#s"/></clipPath><clipPath id="o"><use xlink:href="#s"/></clipPath><clipPath id="n"><use xlink:href="#s"/></clipPath><clipPath id="i"><use xlink:href="#r"/></clipPath><filter id="e" x="-.06" y="-.06" width="1.12" height="1.12" color-interpolation-filters="sRGB"><feGaussianBlur stdDeviation=".4"/></filter><clipPath id="h"><use xlink:href="#s"/></clipPath><clipPath id="g"><use xlink:href="#s"/></clipPath><clipPath id="f"><use xlink:href="#s"/></clipPath><clipPath id="m"><use xlink:href="#r"/></clipPath><clipPath id="l"><use xlink:href="#s"/></clipPath><clipPath id="k"><use xlink:href="#s"/></clipPath><clipPath id="j"><use xlink:href="#s"/></clipPath></defs><g transform="matrix(1.872 0 0 1.872 -4.6072 -1933.4)" stroke-width=".5"><g transform="matrix(.38637 .10353 -.10353 .38637 -92.63 796.68)" stroke-width=".5"><use transform="translate(384.57,499.8)" clip-path="url(#q)" xlink:href="#t"/><use clip-path="url(#p)" xlink:href="#u"/><use clip-path="url(#o)" xlink:href="#v"/><use clip-path="url(#n)" xlink:href="#w"/></g><g transform="matrix(.4 0 0 .4 -152.43 831.84)" opacity=".7" stroke-width=".5"><use transform="translate(384.57,499.8)" clip-path="url(#i)" filter="url(#e)" xlink:href="#t"/><use clip-path="url(#h)" filter="url(#e)" xlink:href="#u"/><use clip-path="url(#g)" filter="url(#e)" xlink:href="#w"/><use clip-path="url(#f)" filter="url(#e)" xlink:href="#v"/></g><use transform="matrix(.28284 .28284 -.28284 .28284 11 1027.8)" clip-path="url(#i)" opacity=".35" stroke-width=".25036" xlink:href="#t"/><use transform="matrix(.28284 .28284 -.28284 .28284 43.591 777.65)" clip-path="url(#h)" opacity=".35" stroke-width=".25036" xlink:href="#u"/><use transform="matrix(.28284 .28284 -.28284 .28284 43.591 777.65)" clip-path="url(#g)" opacity=".35" stroke-width=".25036" xlink:href="#w"/><use transform="matrix(.28284 .28284 -.28284 .28284 43.591 777.65)" clip-path="url(#f)" opacity=".35" stroke-width=".25036" xlink:href="#v"/><g transform="matrix(.10353 .38637 -.38637 .10353 171.08 829.27)" stroke-width=".25036"><use transform="translate(384.57,499.8)" clip-path="url(#m)" opacity=".3" xlink:href="#t"/><use clip-path="url(#l)" opacity=".3" xlink:href="#u"/><use clip-path="url(#k)" opacity=".3" xlink:href="#w"/><use clip-path="url(#j)" opacity=".3" xlink:href="#v"/></g></g></svg>
