<svg width="32" height="32" version="1.1" viewBox="0 0 8 8" xmlns="http://www.w3.org/2000/svg" xmlns:xlink="http://www.w3.org/1999/xlink"><defs><linearGradient id="a" x1="8" x2="24" y1="24" y2="8" gradientUnits="userSpaceOnUse"><stop stop-color="#e81877" offset="0"/><stop stop-color="#dd1d8c" offset=".312"/><stop stop-color="#6d57b1" offset=".562"/><stop stop-color="#2a78c1" offset=".75"/><stop stop-color="#018dcb" offset="1"/></linearGradient><linearGradient id="b" x1="8" x2="24" y1="24" y2="8" gradientTransform="matrix(1 0 0 -1 384.6 547.8)" gradientUnits="userSpaceOnUse"><stop stop-color="#e51561" offset="0"/><stop stop-color="#e4156c" offset=".312"/><stop stop-color="#e71e2c" offset=".562"/><stop stop-color="#e8301e" offset=".75"/><stop stop-color="#e6320e" offset="1"/></linearGradient><linearGradient id="c" x1="8" x2="24" y1="24" y2="8" gradientTransform="matrix(-1 0 0 1 432.6 499.8)" gradientUnits="userSpaceOnUse"><stop stop-color="#bec900" offset="0"/><stop stop-color="#9ec80a" offset=".312"/><stop stop-color="#71b93d" offset=".562"/><stop stop-color="#35a48f" offset=".75"/><stop stop-color="#018fca" offset="1"/></linearGradient><linearGradient id="d" x1="8" x2="24" y1="24" y2="8" gradientTransform="rotate(180 216.3 273.9)" gradientUnits="userSpaceOnUse"><stop stop-color="#c1cc00" offset="0"/><stop stop-color="#dfcd00" offset=".312"/><stop stop-color="#f0cc00" offset=".562"/><stop stop-color="#fd8c08" offset=".75"/><stop stop-color="#f25c13" offset="1"/></linearGradient><filter id="e" x="-.06" y="-.06" width="1.12" height="1.12" color-interpolation-filters="sRGB"><feGaussianBlur stdDeviation=".4"/></filter><clipPath id="f"><use xlink:href="#r"/></clipPath><clipPath id="g"><use xlink:href="#s"/></clipPath><clipPath id="h"><use xlink:href="#s"/></clipPath><clipPath id="i"><use xlink:href="#s"/></clipPath><clipPath id="j"><use xlink:href="#r"/></clipPath><clipPath id="k"><use xlink:href="#s"/></clipPath><clipPath id="l"><use xlink:href="#s"/></clipPath><clipPath id="m"><use xlink:href="#s"/></clipPath><clipPath id="n"><use xlink:href="#r"/></clipPath><clipPath id="o"><use xlink:href="#s"/></clipPath><clipPath id="p"><use xlink:href="#s"/></clipPath><clipPath id="q"><use xlink:href="#s"/></clipPath><rect id="r" x="8" y="8" width="32" height="32" rx="16"/><rect id="s" x="392.6" y="507.8" width="32" height="32" rx="16"/><path id="t" d="m24 8c-8.864 0-16 7.136-16 16h16z" fill="url(#a)"/><path id="u" d="m408.6 539.8c-8.864 0-16-7.136-16-16h16z" fill="url(#b)"/><path id="v" d="m408.6 507.8c8.864 0 16 7.136 16 16h-16z" fill="url(#c)"/><path id="w" d="m408.6 539.8c8.864 0 16-7.136 16-16h-16z" fill="url(#d)"/></defs><g transform="matrix(.4683 0 0 .4683 -1.151 -483.7)" stroke-width="2"><g transform="matrix(.3864 .1035 -.1035 .3864 -92.63 796.7)" stroke-width="2"><use transform="translate(384.6 499.8)" clip-path="url(#f)" xlink:href="#t"/><use clip-path="url(#g)" xlink:href="#u"/><use clip-path="url(#h)" xlink:href="#v"/><use clip-path="url(#i)" xlink:href="#w"/></g><g transform="matrix(.4 0 0 .4 -152.4 831.8)" opacity=".7" stroke-width="8"><use transform="translate(384.6 499.8)" clip-path="url(#j)" filter="url(#e)" xlink:href="#t"/><use clip-path="url(#k)" filter="url(#e)" xlink:href="#u"/><use clip-path="url(#l)" filter="url(#e)" xlink:href="#w"/><use clip-path="url(#m)" filter="url(#e)" xlink:href="#v"/></g><use transform="matrix(.2828 .2828 -.2828 .2828 11 1028)" clip-path="url(#j)" opacity=".35" stroke-width="4" xlink:href="#t"/><use transform="matrix(.2828 .2828 -.2828 .2828 43.59 777.6)" clip-path="url(#k)" opacity=".35" stroke-width="4" xlink:href="#u"/><use transform="matrix(.2828 .2828 -.2828 .2828 43.59 777.6)" clip-path="url(#l)" opacity=".35" stroke-width="4" xlink:href="#w"/><use transform="matrix(.2828 .2828 -.2828 .2828 43.59 777.6)" clip-path="url(#m)" opacity=".35" stroke-width="4" xlink:href="#v"/><g transform="matrix(.1035 .3864 -.3864 .1035 171.1 829.3)" stroke-width="4"><use transform="translate(384.6 499.8)" clip-path="url(#n)" opacity=".3" xlink:href="#t"/><use clip-path="url(#o)" opacity=".3" xlink:href="#u"/><use clip-path="url(#p)" opacity=".3" xlink:href="#w"/><use clip-path="url(#q)" opacity=".3" xlink:href="#v"/></g></g></svg>
