<svg version="1.1" viewBox="0 0 32 32" xmlns="http://www.w3.org/2000/svg"><path d="m5 23s1-18 6-18c12 0 12 18 12 18" fill="none" stroke="#1d99f3" stroke-width="2px"/><g transform="translate(.998 1)" fill="#fff" stroke="#1d99f3" stroke-linejoin="round"><path d="M 1.5,22 A 2.5,2.5 0 0 1 4,19.5 2.5,2.5 0 0 1 6.5,22 2.5,2.5 0 0 1 4,24.5 2.5,2.5 0 0 1 1.5,22"/><path d="m19.5 22a2.5 2.5 0 0 1 2.5-2.5 2.5 2.5 0 0 1 2.5 2.5 2.5 2.5 0 0 1-2.5 2.5 2.5 2.5 0 0 1-2.5-2.5"/><path d="M 7.5,4 A 2.5,2.5 0 0 1 10,1.5 2.5,2.5 0 0 1 12.5,4 2.5,2.5 0 0 1 10,6.5 2.5,2.5 0 0 1 7.5,4"/></g><path d="m14 6v1.6h-4v22.4h20v-22.4h-4v-1.6zm-2.4 3.2h2.4v2.4h12v-2.4h2.4l3.2e-4 19.2h-16.8zm2.4 4.8v1.6h9.6l-2e-6 -1.6zm0 4.8v1.6h6.4v-1.6zm0 4.8v1.6l3.2-7e-6v-1.6z" fill="#444"/></svg>
