<svg version="1.1" viewBox="0 0 32 32" xmlns="http://www.w3.org/2000/svg"><path d="m7 25s1-18 6-18c12 0 12 18 12 18" fill="none" stroke="#1d99f3" stroke-width="2px"/><g fill="#fff" stroke="#1d99f3"><path d="M 4.5,25 A 2.5,2.5 0 0 1 7,22.5 2.5,2.5 0 0 1 9.5,25 2.5,2.5 0 0 1 7,27.5 2.5,2.5 0 0 1 4.5,25"/><path d="m22.5 25a2.5 2.5 0 0 1 2.5-2.5 2.5 2.5 0 0 1 2.5 2.5 2.5 2.5 0 0 1-2.5 2.5 2.5 2.5 0 0 1-2.5-2.5" style="paint-order:markers fill stroke"/><path d="M 10.5,7 A 2.5,2.5 0 0 1 13,4.5 2.5,2.5 0 0 1 15.5,7 2.5,2.5 0 0 1 13,9.5 2.5,2.5 0 0 1 10.5,7"/></g><path d="m4 28 24-24" fill="none" stroke="#da4453" stroke-width="2"/><path d="m5 3 23 25" fill="none" stroke="#da4453" stroke-width="2" style="mix-blend-mode:multiply"/></svg>
