<svg version="1.1" viewBox="0 0 32 32" xmlns="http://www.w3.org/2000/svg"><g fill="none" stroke="#1d99f3" stroke-width="2px"><path d="m4 22s1-18 6-18c12 0 12 18 12 18"/><path d="m8.85 27.1s1-18 6-18c12 0 12 18 12 18"/></g><g fill="#fff" stroke="#1d99f3" stroke-linejoin="round"><path d="M 1.5,22 A 2.5,2.5 0 0 1 4,19.5 2.5,2.5 0 0 1 6.5,22 2.5,2.5 0 0 1 4,24.5 2.5,2.5 0 0 1 1.5,22"/><path d="m19.5 22a2.5 2.5 0 0 1 2.5-2.5 2.5 2.5 0 0 1 2.5 2.5 2.5 2.5 0 0 1-2.5 2.5 2.5 2.5 0 0 1-2.5-2.5"/><path d="M 7.5,4 A 2.5,2.5 0 0 1 10,1.5 2.5,2.5 0 0 1 12.5,4 2.5,2.5 0 0 1 10,6.5 2.5,2.5 0 0 1 7.5,4"/><path d="m7.5 28a2.5 2.5 0 0 1 2.5-2.5 2.5 2.5 0 0 1 2.5 2.5 2.5 2.5 0 0 1-2.5 2.5 2.5 2.5 0 0 1-2.5-2.5"/><path d="m25.5 28a2.5 2.5 0 0 1 2.5-2.5 2.5 2.5 0 0 1 2.5 2.5 2.5 2.5 0 0 1-2.5 2.5 2.5 2.5 0 0 1-2.5-2.5"/><path d="m13.5 10a2.5 2.5 0 0 1 2.5-2.5 2.5 2.5 0 0 1 2.5 2.5 2.5 2.5 0 0 1-2.5 2.5 2.5 2.5 0 0 1-2.5-2.5"/></g></svg>
