<svg version="1.1" viewBox="0 0 32 32" xmlns="http://www.w3.org/2000/svg"><path d="m5 23s1-18 6-18c12 0 12 18 12 18" fill="none" stroke="#1d99f3" stroke-width="2px"/><g fill="#fff" stroke="#1d99f3" stroke-linejoin="round"><path d="M 2.5,23 A 2.5,2.5 0 0 1 5,20.5 2.5,2.5 0 0 1 7.5,23 2.5,2.5 0 0 1 5,25.5 2.5,2.5 0 0 1 2.5,23" style="paint-order:markers fill stroke"/><path d="m20.5 23a2.5 2.5 0 0 1 2.5-2.5 2.5 2.5 0 0 1 2.5 2.5 2.5 2.5 0 0 1-2.5 2.5 2.5 2.5 0 0 1-2.5-2.5" style="paint-order:markers fill stroke"/><path d="M 8.5,5 A 2.5,2.5 0 0 1 11,2.5 2.5,2.5 0 0 1 13.5,5 2.5,2.5 0 0 1 11,7.5 2.5,2.5 0 0 1 8.5,5" style="paint-order:markers fill stroke"/></g><path d="m6 5.96v24h24v-20l-4-4h-18zm2 2h4v8h12v-8h1.48l2.52 2.64v17.4h-2v-8h-16v8h-2zm6 0h4v6h-4zm-2 14h12v6h-12z" fill="#444" stroke-width="4" style="mix-blend-mode:multiply"/></svg>
