<svg version="1.1" viewBox="0 0 32 32" xmlns="http://www.w3.org/2000/svg"><path d="m7 25c6.05 0 3-18 9-18s3 18 9 18" fill="none" stroke="#1d99f3" stroke-width="2"/><g fill="#fff" stroke="#1d99f3"><path d="M 4.5,25 A 2.5,2.5 0 0 1 7,22.5 2.5,2.5 0 0 1 9.5,25 2.5,2.5 0 0 1 7,27.5 2.5,2.5 0 0 1 4.5,25"/><path d="m22.5 25a2.5 2.5 0 0 1 2.5-2.5 2.5 2.5 0 0 1 2.5 2.5 2.5 2.5 0 0 1-2.5 2.5 2.5 2.5 0 0 1-2.5-2.5"/><path d="M 13.5,7 A 2.5,2.5 0 0 1 16,4.5 2.5,2.5 0 0 1 18.5,7 2.5,2.5 0 0 1 16,9.5 2.5,2.5 0 0 1 13.5,7"/></g></svg>
