<svg version="1.1" viewBox="0 0 32 32" xmlns="http://www.w3.org/2000/svg" xmlns:xlink="http://www.w3.org/1999/xlink"><defs><linearGradient id="a" x1="7" x2="21" y1="21" y2="7" gradientTransform="translate(-1,-1)" gradientUnits="userSpaceOnUse"><stop stop-color="#444" offset="0"/><stop stop-color="#bbb" offset="1"/></linearGradient><linearGradient id="b" x1="7" x2="21" y1="21" y2="7" gradientTransform="translate(5,5)" gradientUnits="userSpaceOnUse" xlink:href="#a"/></defs><path d="m6 20 14-14" fill="none" stroke="url(#a)" stroke-width="2px"/><path d="M 1.5,22 A 2.5,2.5 0 0 1 4,19.5 2.5,2.5 0 0 1 6.5,22 2.5,2.5 0 0 1 4,24.5 2.5,2.5 0 0 1 1.5,22" fill="#fff" stroke="#444"/><path d="M 19.5,4 A 2.5,2.5 0 0 1 22,1.5 2.5,2.5 0 0 1 24.5,4 2.5,2.5 0 0 1 22,6.5 2.5,2.5 0 0 1 19.5,4" fill="#fff" stroke="#999"/><path d="m12 26 14-14" fill="none" stroke="url(#b)" stroke-width="2px"/><path d="m7.5 28a2.5 2.5 0 0 1 2.5-2.5 2.5 2.5 0 0 1 2.5 2.5 2.5 2.5 0 0 1-2.5 2.5 2.5 2.5 0 0 1-2.5-2.5" fill="#fff" stroke="#444"/><path d="m25.5 10a2.5 2.5 0 0 1 2.5-2.5 2.5 2.5 0 0 1 2.5 2.5 2.5 2.5 0 0 1-2.5 2.5 2.5 2.5 0 0 1-2.5-2.5" fill="#fff" stroke="#999"/></svg>
