<svg version="1.1" viewBox="0 0 32 32" xmlns="http://www.w3.org/2000/svg"><defs><linearGradient id="a" x1="7" x2="21" y1="21" y2="7" gradientUnits="userSpaceOnUse"><stop stop-color="#444" offset="0"/><stop stop-color="#bbb" offset="1"/></linearGradient></defs><path d="m7 21 14-14" fill="none" stroke="url(#a)" stroke-width="2px"/><path d="M 2.5,23 A 2.5,2.5 0 0 1 5,20.5 2.5,2.5 0 0 1 7.5,23 2.5,2.5 0 0 1 5,25.5 2.5,2.5 0 0 1 2.5,23" fill="#fff" stroke="#444"/><path d="M 20.5,5 A 2.5,2.5 0 0 1 23,2.5 2.5,2.5 0 0 1 25.5,5 2.5,2.5 0 0 1 23,7.5 2.5,2.5 0 0 1 20.5,5" fill="#fff" stroke="#bbb"/><path d="m14 6v1.6h-4v22.4h20v-22.4h-4v-1.6zm-2.4 3.2h2.4v2.4h12v-2.4h2.4l3.2e-4 19.2h-16.8zm2.4 4.8v1.6h9.6l-2e-6 -1.6zm0 4.8v1.6h6.4v-1.6zm0 4.8v1.6l3.2-7e-6v-1.6z" fill="#bbb"/></svg>
