<svg version="1.1" viewBox="0 0 32 32" xmlns="http://www.w3.org/2000/svg"><defs><linearGradient id="a" x1="9" x2="23" y1="23" y2="9" gradientUnits="userSpaceOnUse"><stop stop-color="#444" offset="0"/><stop stop-color="#bbb" offset="1"/></linearGradient></defs><path d="m9 23 14-14" fill="none" stroke="url(#a)" stroke-width="2px"/><path d="M 4.5,25 A 2.5,2.5 0 0 1 7,22.5 2.5,2.5 0 0 1 9.5,25 2.5,2.5 0 0 1 7,27.5 2.5,2.5 0 0 1 4.5,25" fill="#fff" stroke="#444"/><path d="M 22.5,7 A 2.5,2.5 0 0 1 25,4.5 2.5,2.5 0 0 1 27.5,7 2.5,2.5 0 0 1 25,9.5 2.5,2.5 0 0 1 22.5,7" fill="#fff" stroke="#bbb" /></svg>
