<svg version="1.1" viewBox="0 0 32 32" xmlns="http://www.w3.org/2000/svg"><defs><linearGradient id="a" x1="7" x2="21" y1="21" y2="7" gradientUnits="userSpaceOnUse"><stop stop-color="#444" offset="0"/><stop stop-color="#bbb" offset="1"/></linearGradient></defs><path d="m7 21 14-14" fill="none" stroke="url(#a)" stroke-width="2px"/><path d="M 2.5,23 A 2.5,2.5 0 0 1 5,20.5 2.5,2.5 0 0 1 7.5,23 2.5,2.5 0 0 1 5,25.5 2.5,2.5 0 0 1 2.5,23" fill="#fff" stroke="#444" /><path d="M 20.5,5 A 2.5,2.5 0 0 1 23,2.5 2.5,2.5 0 0 1 25.5,5 2.5,2.5 0 0 1 23,7.5 2.5,2.5 0 0 1 20.5,5" fill="#fff" stroke="#bbb" /><path d="m6 6v24h24v-20l-4-4h-18zm2 2h4v8h12v-8h1.48l2.52 2.64v17.4h-2v-8h-16v8h-2zm6 0h4v6h-4zm-2 14h12v6h-12z" fill="#bbb" stroke-width="4" style="mix-blend-mode:multiply"/></svg>
