<svg version="1.1" viewBox="0 0 32 32" xmlns="http://www.w3.org/2000/svg"><g fill="none" stroke-width="2"><g stroke="#999"><path d="m2 23 24-1e-6"/><path d="m5 26 1e-6 -24"/><path d="m7 22 9e-5 -1"/><path d="m9 22 1e-4 -19"/><path d="m11 22 1e-4 -14"/><path d="m13 22 1e-4 -2"/><path d="m15 22 1e-4 -3"/><path d="m17 22-8e-6 -5"/><path d="m19 22-8e-6 -6"/><path d="m21 22-8e-6 -4"/><path d="m23 22-8e-6 -2"/><path d="m25 22-8e-6 -1"/></g><path d="m27 22-3 7m-16-25 8 25m4-19v19" stroke="#bbb" style="mix-blend-mode:multiply"/></g></svg>
