<svg version="1.1" viewBox="0 0 32 32" xmlns="http://www.w3.org/2000/svg"><g fill="#999"><path d="m4 16a12 2 0 0 1 12-2 12 2 0 0 1 12 2 12 2 0 0 1-12 2 12 2 0 0 1-12-2" style="paint-order:markers fill stroke"/><path transform="rotate(15)" d="m7.6 11.3a12 2 0 0 1 12-2 12 2 0 0 1 12 2 12 2 0 0 1-12 2 12 2 0 0 1-12-2" style="paint-order:markers fill stroke"/><path transform="rotate(-60)" d="m-17.9 21.9a12 2 0 0 1 12-2 12 2 0 0 1 12 2 12 2 0 0 1-12 2 12 2 0 0 1-12-2" style="paint-order:markers fill stroke"/><path transform="rotate(-75)" d="m-23.3 19.6a12 2 0 0 1 12-2 12 2 0 0 1 12 2 12 2 0 0 1-12 2 12 2 0 0 1-12-2" style="paint-order:markers fill stroke"/></g><path transform="rotate(-75)" d="m-14.3 19.6a3 1 0 0 1 3-1 3 1 0 0 1 3 1 3 1 0 0 1-3 1 3 1 0 0 1-3-1" fill="#bbb" style="paint-order:markers fill stroke"/><path transform="rotate(15)" d="m16.6 11.3a3 1 0 0 1 3-1 3 1 0 0 1 3 1 3 1 0 0 1-3 1 3 1 0 0 1-3-1" fill="#bbb" style="paint-order:markers fill stroke"/></svg>
