<svg version="1.1" viewBox="0 0 32 32" xmlns="http://www.w3.org/2000/svg"><g fill="none" stroke="#777"><g stroke-width="1px"><path d="m3 3 11 1 11 2"/><path d="m3 10 11-2 11-1m-22 15 11-2 11-1"/><path d="m3 5 11 1 11-2"/><path d="m3 25 11-8 11 7"/></g><g stroke-width="2"><path d="m3 2v24"/><path d="m25 2v24"/><path d="m14 2v24"/></g></g><path d="m22 8c-2 0-4 1.6-4 3h-12v2h12c0 1.6 2 3 4 3s4-1.6 4-3h4v-2h-4c0-1.6-2-3-4-3zm-10 14c-2 0-4 1.6-4 3h-2v2h2c0 1.6 2 3 4 3s4-1.6 4-3h14v-2h-14c0-1.6-2-3-4-3zm0 2c1 0 2 1 2 2s-1 2-2 2-2-1-2-2 1-2 2-2z" fill="#444" style="mix-blend-mode:multiply"/></svg>
